<?xml version="1.0" encoding="UTF-8"?>
<svg version="1.1" xmlns="http://www.w3.org/2000/svg" width="640" height="640">
<path d="M0 0 C211.2 0 422.4 0 640 0 C640 211.2 640 422.4 640 640 C428.8 640 217.6 640 0 640 C0 428.8 0 217.6 0 0 Z " fill="#FEFEFE" transform="translate(0,0)"/>
<path d="M0 0 C0.96813836 -0.00382555 1.93627671 -0.00765109 2.9337526 -0.01159257 C6.1686237 -0.02188797 9.40331616 -0.01793697 12.63819885 -0.01396179 C14.96119857 -0.01831015 17.28419684 -0.02349371 19.60719299 -0.02944946 C25.91084977 -0.04283671 32.21444658 -0.04341847 38.51811481 -0.04088616 C44.4477412 -0.03968098 50.37735751 -0.04589522 56.30698086 -0.05131962 C68.76800001 -0.06218768 81.22899208 -0.06003606 93.69001276 -0.05393478 C105.08145023 -0.0487654 116.4728022 -0.06002289 127.86422276 -0.07903299 C139.57141956 -0.09841977 151.27857593 -0.10666598 162.98578888 -0.10290974 C169.55432213 -0.10109647 176.12277705 -0.10373763 182.69129753 -0.11762428 C188.86781132 -0.13019374 195.04415384 -0.1282667 201.22066498 -0.11521339 C203.4861793 -0.11284624 205.75170565 -0.11558726 208.01720619 -0.12383652 C211.11241829 -0.13429349 214.20705461 -0.12621134 217.30224609 -0.11352539 C218.19632327 -0.12089968 219.09040045 -0.12827396 220.01157087 -0.13587171 C228.78380065 -0.06035899 236.40440206 2.5445709 242.81227112 8.82710266 C248.4489609 15.01776687 250.69664975 20.79020823 250.50758362 29.16304016 C250.50333878 29.88560501 250.49909393 30.60816986 250.49472046 31.35263062 C250.47807905 33.63488335 250.44045735 35.91621574 250.40211487 38.19819641 C250.3870491 39.75612626 250.37336403 41.31407012 250.36109924 42.87202454 C250.32822369 46.66859698 250.27654576 50.46449128 250.21461487 54.26069641 C250.93528137 54.24498596 251.65594788 54.22927551 252.39845276 54.21308899 C255.69125902 54.15039155 258.98393925 54.11159546 262.27711487 54.07319641 C263.97771057 54.03549133 263.97771057 54.03549133 265.71266174 53.99702454 C271.97357131 53.94226439 276.76897233 54.02050133 282.21461487 57.26069641 C284.67875911 60.95691277 285.01561789 63.9724984 284.21461487 68.26069641 C282.61725031 71.22632144 280.6781179 73.73058221 277.40895081 74.91474915 C274.69565043 75.34251357 272.10264058 75.37237001 269.35523987 75.35835266 C268.24020081 75.35513 267.12516174 75.35190735 265.97633362 75.34858704 C264.81746643 75.34020813 263.65859924 75.33182922 262.46461487 75.32319641 C260.70311096 75.31642883 260.70311096 75.31642883 258.90602112 75.30952454 C256.00883414 75.29774735 253.11175033 75.28129967 250.21461487 75.26069641 C250.23032532 76.18817688 250.24603577 77.11565735 250.26222229 78.07124329 C250.31365544 81.54525963 250.35111168 85.01886548 250.37940979 88.49311829 C250.39440375 89.99057948 250.41480592 91.48799746 250.44093323 92.98530579 C250.64370304 104.91294184 250.00214236 113.16121953 241.46852112 122.27632141 C234.01496074 128.83855481 225.20357888 129.40981664 215.72116089 129.40786743 C214.76022607 129.41154412 213.79929124 129.41522081 212.80923718 129.41900891 C209.58669164 129.43002906 206.36417837 129.43388676 203.14161682 129.43769836 C200.83200987 129.44396423 198.52240392 129.45061114 196.21279907 129.45761108 C188.62617188 129.47863758 181.03954451 129.4890115 173.45289612 129.49897766 C170.84015073 129.50302561 168.22740544 129.50714254 165.61466026 129.51132774 C154.74655706 129.52819359 143.87845676 129.54282867 133.0103426 129.55007648 C130.19244701 129.55198623 127.37455144 129.55390659 124.55665588 129.55586243 C123.50615417 129.55658804 123.50615417 129.55658804 122.4344302 129.55732831 C111.09269927 129.56562642 99.75107387 129.59096178 88.409389 129.6234431 C76.7542305 129.65654901 65.09913103 129.67419585 53.44392556 129.67772073 C46.90432217 129.68007082 40.36488573 129.68902659 33.82532692 129.7141819 C27.67179171 129.73747035 21.5185333 129.74169251 15.36496544 129.73142052 C13.10995945 129.73092526 10.8549398 129.7372427 8.59997559 129.75097656 C5.51398285 129.7687161 2.4289813 129.76157865 -0.65701294 129.7484436 C-1.54273772 129.75941285 -2.42846251 129.7703821 -3.34102744 129.78168374 C-10.86376922 129.70473631 -17.13639514 127.49984936 -23.53538513 123.57319641 C-30.53200746 116.38222346 -34.06414531 108.99067839 -33.98069763 98.89350891 C-33.97786774 98.2139212 -33.97503784 97.5343335 -33.97212219 96.83415222 C-33.96101478 94.68448033 -33.93592904 92.53524027 -33.91038513 90.38569641 C-33.90034308 88.91955664 -33.89121938 87.45341027 -33.88304138 85.98725891 C-33.86110672 82.4116001 -33.82664327 78.83619047 -33.78538513 75.26069641 C-37.80628275 75.30505861 -41.82586017 75.3751054 -45.84593201 75.46821594 C-47.21136677 75.49631264 -48.57696077 75.51758318 -49.94261169 75.5316925 C-51.91392552 75.55327623 -53.88488144 75.60205101 -55.85569763 75.65132141 C-57.03921814 75.67226868 -58.22273865 75.69321594 -59.44212341 75.71479797 C-63.4749771 76.37329519 -65.64287158 77.67851132 -68.78538513 80.26069641 C-71.17582219 83.79674465 -71.04462347 87.03849602 -71.06004333 91.22895813 C-71.06515427 91.92216156 -71.0702652 92.61536499 -71.07553101 93.32957458 C-71.08940805 95.61659936 -71.0884715 97.90332208 -71.08616638 100.19038391 C-71.09005478 101.78455212 -71.09438975 103.37871929 -71.09915161 104.97288513 C-71.10661007 108.31348529 -71.10632559 111.65397977 -71.10105896 114.99458313 C-71.09526936 119.26730872 -71.11218455 123.53960012 -71.13540363 127.81225395 C-71.15016521 131.10488905 -71.15100931 134.39742022 -71.14789391 137.69008255 C-71.14840605 139.26488733 -71.15362374 140.83969809 -71.16370583 142.41447067 C-71.17609829 144.62114564 -71.16926223 146.8269832 -71.15769958 149.03364563 C-71.15832901 150.28732941 -71.15895844 151.54101318 -71.15960693 152.83268738 C-70.6618482 157.39234008 -69.41297237 160.70603332 -66.0603447 163.90844631 C-63.10029515 165.66791816 -61.09507086 165.63435042 -57.65930176 165.63250732 C-56.40205292 165.63926483 -55.14480408 165.64602234 -53.84945679 165.65298462 C-52.45838794 165.64543117 -51.06732044 165.63762543 -49.67625427 165.6295929 C-48.20908833 165.63206134 -46.74192415 165.63590021 -45.27476501 165.64100647 C-42.11485997 165.64934586 -38.95513514 165.64853535 -35.79522896 165.64082146 C-30.78831807 165.62922553 -25.78163814 165.64141457 -20.77474976 165.65744019 C-8.33075871 165.69362324 4.11322736 165.69987363 16.55726624 165.69734192 C26.21498122 165.6956262 35.87250708 165.702901 45.53016955 165.73732048 C50.49594074 165.75402266 55.46124935 165.75239802 60.42701805 165.73649776 C63.53501969 165.73065404 66.64280752 165.74152507 69.75077057 165.75674438 C71.1788759 165.76043567 72.60701867 165.7574653 74.03508949 165.74687386 C88.02096697 165.65016591 99.68177538 167.98642781 109.89039612 177.88569641 C117.51847256 186.06269151 118.799779 194.2721538 118.60523987 205.17085266 C118.59958008 206.3789006 118.59392029 207.58694855 118.58808899 208.831604 C118.56582839 212.66255028 118.51564861 216.49253627 118.46461487 220.32319641 C118.44453666 222.93190679 118.42628821 225.54063194 118.40992737 228.14936829 C118.36599729 234.52013462 118.29918785 240.89034688 118.21461487 247.26069641 C119.48522766 247.22142029 119.48522766 247.22142029 120.7815094 247.18135071 C123.94599549 247.09577136 127.10988893 247.03327545 130.27516174 246.98603821 C131.6409199 246.96100362 133.00654554 246.92696424 134.37184143 246.88349915 C147.18416876 246.48603644 147.18416876 246.48603644 151.08180237 249.59272766 C154.69536835 254.11299426 154.55129207 258.69840197 154.89381409 264.26289368 C154.95322803 265.18482702 155.01264198 266.10676037 155.07385635 267.05663109 C155.26924875 270.12565098 155.45739891 273.19505468 155.64430237 276.26460266 C155.71003323 277.32714327 155.77576408 278.38968388 155.84348679 279.48442268 C157.30970472 303.30766977 158.30376122 327.14493981 159.21656799 350.99476624 C159.54701768 359.59776808 159.88771991 368.20037122 160.22782516 376.80299568 C160.34321988 379.74333058 160.45607356 382.68375324 160.56840515 385.62420654 C160.94245821 395.29329291 161.39365867 404.94995154 162.00308228 414.60723877 C163.27188014 436.52111595 163.99657573 456.48088284 148.89039612 473.94819641 C139.0128501 484.36846474 127.18003435 491.21376548 112.61256409 491.68208313 C94.55018319 491.80670336 81.21175665 486.87421697 68.19898987 474.31538391 C63.74702054 469.53435598 60.616293 464.33069114 58.21461487 458.26069641 C57.96446625 457.63476089 57.71431763 457.00882538 57.45658875 456.36392212 C54.63636348 448.33699824 54.82431627 440.37195056 54.94117737 431.98335266 C54.95306132 430.39132112 54.9643294 428.79928487 54.97502136 427.20724487 C55.12130291 410.48092426 55.76557747 393.77136581 56.48872375 377.0617218 C56.62331194 373.90879214 56.75027238 370.75557506 56.87713051 367.60232639 C57.56052276 350.65597534 58.38545669 333.72405451 59.39294434 316.79387665 C59.94715547 307.45619844 60.41003823 298.12247663 60.70680237 288.77241516 C60.74022736 287.76941879 60.77365234 286.76642242 60.80809021 285.73303223 C60.93878424 281.77932398 61.0671904 277.82588456 61.16822815 273.87129211 C61.24731064 270.87918004 61.34997546 267.88864762 61.45680237 264.89741516 C61.47363068 264.01011215 61.49045898 263.12280914 61.50779724 262.20861816 C61.72561927 256.79282443 62.58530055 253.53878275 66.21461487 249.26069641 C69.84767545 246.83865603 71.53280509 247.0276675 75.85133362 247.06538391 C77.15006409 247.07182922 78.44879456 247.07827454 79.78688049 247.08491516 C81.15862794 247.10162581 82.53037273 247.1185557 83.90211487 247.13569641 C85.28557205 247.14572967 86.66903614 247.15485492 88.05250549 247.16304016 C91.44004939 247.18664674 94.82724559 247.21957604 98.21461487 247.26069641 C98.17292254 240.24936053 98.10057314 233.23881694 98.00709534 226.22798157 C97.97890292 223.84393978 97.95767983 221.45980483 97.94361877 219.07563782 C97.92216617 215.64465189 97.87550123 212.21478417 97.82398987 208.78413391 C97.82214691 207.19005203 97.82214691 207.19005203 97.82026672 205.56376648 C97.70422724 199.67556275 97.38549565 195.78526932 93.21461487 191.26069641 C89.33372095 188.44220935 86.63550604 187.886371 81.87216187 187.8888855 C80.59237457 187.88212799 79.31258728 187.87537048 77.99401855 187.8684082 C76.58293019 187.87596105 75.17184316 187.88376677 73.76075745 187.89179993 C72.26887231 187.88933088 70.77698891 187.88549142 69.28511047 187.88038635 C66.07556185 187.87205521 62.8661907 187.87285027 59.65664101 187.88057137 C54.57486418 187.89217113 49.49331473 187.87997646 44.41156006 187.86395264 C31.78598909 187.82778196 19.16042338 187.82152365 6.5348053 187.8240509 C-3.27214575 187.82576472 -13.07891058 187.81855747 -22.88580972 187.78407234 C-27.93018799 187.76733319 -32.97411125 187.7690262 -38.01848733 187.78489506 C-41.16785996 187.79071952 -44.31702002 187.77990236 -47.46635437 187.76464844 C-48.91829645 187.76094297 -50.37027513 187.76396972 -51.82218361 187.77451897 C-63.69831215 187.8550033 -73.66308476 185.9916616 -82.56272888 177.58100891 C-92.24789961 167.38393698 -92.38832928 156.24060651 -92.31663513 142.88179016 C-92.31933489 141.10160104 -92.32322133 139.32141336 -92.32823181 137.54122925 C-92.33410258 133.82525987 -92.32564156 130.10967719 -92.30686951 126.39375305 C-92.28406457 121.65053039 -92.297228 116.90821251 -92.32115936 112.16502285 C-92.33566895 108.49392986 -92.3309881 104.82304858 -92.32064819 101.15194893 C-92.31799601 99.40379286 -92.32119709 97.65561703 -92.33056641 95.90748405 C-92.4032512 78.54043419 -92.4032512 78.54043419 -87.78538513 71.26069641 C-87.09895935 70.06380188 -87.09895935 70.06380188 -86.39866638 68.84272766 C-81.20773202 61.78118632 -74.12662492 57.00549377 -65.78538513 54.26069641 C-62.0532074 53.92012024 -62.0532074 53.92012024 -58.10179138 53.96772766 C-57.40142258 53.9719725 -56.70105377 53.97621735 -55.97946167 53.98059082 C-53.76852513 53.99722485 -51.55854056 54.03484461 -49.34788513 54.07319641 C-47.83813278 54.08826315 -46.32836597 54.10194806 -44.81858826 54.11421204 C-41.14055079 54.1470772 -37.46306106 54.19875059 -33.78538513 54.26069641 C-33.8063324 53.37398254 -33.82727966 52.48726868 -33.84886169 51.57368469 C-33.91763156 48.23747562 -33.96746896 44.90203546 -34.00511169 41.56538391 C-34.02504702 40.13004054 -34.05220588 38.69477644 -34.08714294 37.25971985 C-34.32532089 27.21421485 -33.46637538 19.25934719 -28.09788513 10.51069641 C-19.69217759 2.33217015 -11.42154298 -0.04815946 0 0 Z " fill="#030303" transform="translate(223.78538513183594,73.73930358886719)"/>
<path d="M0 0 C0.95544112 -0.00694553 1.91088225 -0.01389106 2.89527613 -0.02104706 C6.10518881 -0.03938159 9.3143678 -0.0290346 12.52430725 -0.01878357 C14.82217972 -0.02583876 17.12004754 -0.03458208 19.41790771 -0.04489136 C25.66581701 -0.06743987 31.91347364 -0.06443277 38.16140819 -0.05556989 C43.37288853 -0.05046861 48.58432103 -0.05774557 53.79579645 -0.06504196 C66.79109875 -0.08303194 79.78625977 -0.0766126 92.78155697 -0.05887216 C104.06858021 -0.04417635 115.35533722 -0.0588009 126.64232617 -0.08764232 C138.23078683 -0.11703363 149.81911373 -0.12750101 161.40761 -0.11846012 C167.91410009 -0.11352346 174.42038322 -0.11578667 180.92684746 -0.13624763 C187.04433253 -0.15456348 193.16132178 -0.14869567 199.27877998 -0.12404823 C201.52619808 -0.11902742 203.77365368 -0.1225628 206.02104187 -0.13519669 C209.08499667 -0.15106057 212.14730544 -0.13623835 215.21118164 -0.11352539 C216.55096546 -0.13127898 216.55096546 -0.13127898 217.91781563 -0.14939123 C222.30622221 -0.08312239 224.12528285 0.100844 227.72178078 2.83769989 C230.19686505 6.24020833 230.35612354 8.9385468 230.26844788 12.99537659 C230.27239059 13.73095291 230.27633331 14.46652924 230.28039551 15.22439575 C230.28708662 17.64607239 230.2579884 20.06584634 230.22767639 22.48731995 C230.22342414 24.17452631 230.22109748 25.86173854 230.22061157 27.5489502 C230.21445239 31.08051673 230.19178199 34.61144745 230.15614319 38.14283752 C230.11083645 42.66791152 230.09611499 47.1924106 230.09240627 51.71769047 C230.08797628 55.19985617 230.07267052 58.68190143 230.05352974 62.16401482 C230.04465583 63.83255969 230.03792181 65.50111738 230.03336906 67.16967964 C230.02431865 69.5011209 230.00192228 71.8320446 229.97547913 74.16334534 C229.97481445 74.85176514 229.97414978 75.54018494 229.97346497 76.24946594 C229.91768054 79.81598018 229.7474251 82.55188092 227.66908264 85.5146637 C224.63224986 87.53921888 224.05979432 87.76534216 220.65664768 87.77472591 C219.83802677 87.78179151 219.01940585 87.7888571 218.17597824 87.7961368 C217.27696335 87.79372171 216.37794845 87.79130663 215.45169067 87.78881836 C214.49639841 87.79405504 213.54110615 87.79929172 212.55686563 87.80468708 C209.34170669 87.81974185 206.12670612 87.82039343 202.91151428 87.82106018 C200.61216969 87.8286779 198.31282766 87.83710472 196.01348877 87.84628296 C189.75739413 87.86827109 183.50134839 87.87703248 177.24521947 87.8821094 C173.34001217 87.88574741 169.43481779 87.8919845 165.5296154 87.89911079 C154.71991297 87.91857012 143.9102237 87.93508119 133.10050297 87.93798733 C132.40869355 87.9381749 131.71688412 87.93836247 131.00411078 87.93855572 C129.60161777 87.93892197 128.19912477 87.93928567 126.79663176 87.93964683 C125.75231697 87.93992105 125.75231697 87.93992105 124.68690491 87.94020081 C123.9898468 87.94038135 123.29278869 87.9405619 122.5746076 87.94074792 C111.27392688 87.94429133 99.97343651 87.97132425 88.67282183 88.00869869 C77.07424686 88.04675213 65.47577557 88.06570318 53.87713712 88.06644684 C47.363375 88.06724164 40.84985845 88.07607369 34.33615303 88.1044445 C28.21215199 88.13052079 22.08860196 88.13288867 15.964571 88.11678886 C13.7134961 88.11496614 11.46239589 88.12173874 9.21137619 88.13760757 C6.1448622 88.15791211 3.07994958 88.14760806 0.01345825 88.12939453 C-0.88332592 88.1425945 -1.7801101 88.15579447 -2.70406955 88.16939443 C-8.69980749 88.08770689 -8.69980749 88.08770689 -11.88319492 85.19721413 C-13.75840431 81.72255377 -13.89274256 78.70348533 -13.84849548 74.85035706 C-13.85550476 74.09527359 -13.86251404 73.34019012 -13.86973572 72.56222534 C-13.88728589 70.07594105 -13.87570555 67.59080252 -13.86216736 65.10450745 C-13.86486287 63.37245465 -13.86874578 61.64040333 -13.87376404 59.90835571 C-13.87965478 56.28275612 -13.87110895 52.65755131 -13.85240173 49.03199768 C-13.82959512 44.38565935 -13.84274836 39.74024437 -13.86669159 35.09393978 C-13.88114663 31.51911461 -13.87654528 27.94450836 -13.86618042 24.36967659 C-13.86351319 22.65646315 -13.86678278 20.94322979 -13.87609863 19.2300396 C-13.88626164 16.836016 -13.87076935 14.44348801 -13.84849548 12.04957581 C-13.85659241 11.34245453 -13.86468933 10.63533325 -13.87303162 9.90678406 C-13.82093486 6.88342774 -13.56985182 4.87438871 -11.88235378 2.33379555 C-8.05042111 -0.39830889 -4.60032553 -0.04233791 0 0 Z " fill="#FEFEFE" transform="translate(224.33091735839844,94.48533630371094)"/>
<path d="M0 0 C0.96813836 -0.00382555 1.93627671 -0.00765109 2.9337526 -0.01159257 C6.1686237 -0.02188797 9.40331616 -0.01793697 12.63819885 -0.01396179 C14.96119857 -0.01831015 17.28419684 -0.02349371 19.60719299 -0.02944946 C25.91084977 -0.04283671 32.21444658 -0.04341847 38.51811481 -0.04088616 C44.4477412 -0.03968098 50.37735751 -0.04589522 56.30698086 -0.05131962 C68.76800001 -0.06218768 81.22899208 -0.06003606 93.69001276 -0.05393478 C105.08145023 -0.0487654 116.4728022 -0.06002289 127.86422276 -0.07903299 C139.57141956 -0.09841977 151.27857593 -0.10666598 162.98578888 -0.10290974 C169.55432213 -0.10109647 176.12277705 -0.10373763 182.69129753 -0.11762428 C188.86781132 -0.13019374 195.04415384 -0.1282667 201.22066498 -0.11521339 C203.4861793 -0.11284624 205.75170565 -0.11558726 208.01720619 -0.12383652 C211.11241829 -0.13429349 214.20705461 -0.12621134 217.30224609 -0.11352539 C218.19632327 -0.12089968 219.09040045 -0.12827396 220.01157087 -0.13587171 C228.78380065 -0.06035899 236.40440206 2.5445709 242.81227112 8.82710266 C248.4489609 15.01776687 250.69664975 20.79020823 250.50758362 29.16304016 C250.50333878 29.88560501 250.49909393 30.60816986 250.49472046 31.35263062 C250.47807905 33.63488335 250.44045735 35.91621574 250.40211487 38.19819641 C250.3870491 39.75612626 250.37336403 41.31407012 250.36109924 42.87202454 C250.32822369 46.66859698 250.27654576 50.46449128 250.21461487 54.26069641 C250.93528137 54.24498596 251.65594788 54.22927551 252.39845276 54.21308899 C255.69125902 54.15039155 258.98393925 54.11159546 262.27711487 54.07319641 C263.97771057 54.03549133 263.97771057 54.03549133 265.71266174 53.99702454 C271.97357131 53.94226439 276.76897233 54.02050133 282.21461487 57.26069641 C284.67875911 60.95691277 285.01561789 63.9724984 284.21461487 68.26069641 C282.61725031 71.22632144 280.6781179 73.73058221 277.40895081 74.91474915 C274.69565043 75.34251357 272.10264058 75.37237001 269.35523987 75.35835266 C268.24020081 75.35513 267.12516174 75.35190735 265.97633362 75.34858704 C264.81746643 75.34020813 263.65859924 75.33182922 262.46461487 75.32319641 C260.70311096 75.31642883 260.70311096 75.31642883 258.90602112 75.30952454 C256.00883414 75.29774735 253.11175033 75.28129967 250.21461487 75.26069641 C250.23032532 76.18817688 250.24603577 77.11565735 250.26222229 78.07124329 C250.31365544 81.54525963 250.35111168 85.01886548 250.37940979 88.49311829 C250.39440375 89.99057948 250.41480592 91.48799746 250.44093323 92.98530579 C250.64370304 104.91294184 250.00214236 113.16121953 241.46852112 122.27632141 C234.01496074 128.83855481 225.20357888 129.40981664 215.72116089 129.40786743 C214.76022607 129.41154412 213.79929124 129.41522081 212.80923718 129.41900891 C209.58669164 129.43002906 206.36417837 129.43388676 203.14161682 129.43769836 C200.83200987 129.44396423 198.52240392 129.45061114 196.21279907 129.45761108 C188.62617188 129.47863758 181.03954451 129.4890115 173.45289612 129.49897766 C170.84015073 129.50302561 168.22740544 129.50714254 165.61466026 129.51132774 C154.74655706 129.52819359 143.87845676 129.54282867 133.0103426 129.55007648 C130.19244701 129.55198623 127.37455144 129.55390659 124.55665588 129.55586243 C123.50615417 129.55658804 123.50615417 129.55658804 122.4344302 129.55732831 C111.09269927 129.56562642 99.75107387 129.59096178 88.409389 129.6234431 C76.7542305 129.65654901 65.09913103 129.67419585 53.44392556 129.67772073 C46.90432217 129.68007082 40.36488573 129.68902659 33.82532692 129.7141819 C27.67179171 129.73747035 21.5185333 129.74169251 15.36496544 129.73142052 C13.10995945 129.73092526 10.8549398 129.7372427 8.59997559 129.75097656 C5.51398285 129.7687161 2.4289813 129.76157865 -0.65701294 129.7484436 C-1.54273772 129.75941285 -2.42846251 129.7703821 -3.34102744 129.78168374 C-10.86376922 129.70473631 -17.13639514 127.49984936 -23.53538513 123.57319641 C-30.53200746 116.38222346 -34.06414531 108.99067839 -33.98069763 98.89350891 C-33.97786774 98.2139212 -33.97503784 97.5343335 -33.97212219 96.83415222 C-33.96101478 94.68448033 -33.93592904 92.53524027 -33.91038513 90.38569641 C-33.90034308 88.91955664 -33.89121938 87.45341027 -33.88304138 85.98725891 C-33.86110672 82.4116001 -33.82664327 78.83619047 -33.78538513 75.26069641 C-32.82116638 75.17432922 -31.85694763 75.08796204 -30.86351013 74.99897766 C-29.60022888 74.85846985 -28.33694763 74.71796204 -27.03538513 74.57319641 C-25.78241638 74.44557922 -24.52944763 74.31796204 -23.23851013 74.18647766 C-19.1053292 73.07837372 -17.95552262 71.88654494 -15.78538513 68.26069641 C-15.2101293 64.23390556 -15.26370556 62.1323145 -17.36351013 58.62397766 C-20.52653372 55.53747884 -22.68561619 55.39122843 -27.03538513 54.94819641 C-28.29866638 54.8076886 -29.56194763 54.66718079 -30.86351013 54.52241516 C-31.82772888 54.43604797 -32.79194763 54.34968079 -33.78538513 54.26069641 C-33.88535283 50.0289869 -33.95736186 45.79792931 -34.00511169 41.56538391 C-34.02504702 40.13004054 -34.05220588 38.69477644 -34.08714294 37.25971985 C-34.32532089 27.21421485 -33.46637538 19.25934719 -28.09788513 10.51069641 C-19.69217759 2.33217015 -11.42154298 -0.04815946 0 0 Z M-11.33682156 23.07982826 C-13.42106321 26.2177342 -13.34466873 29.15338255 -13.30296326 32.79560852 C-13.30997253 33.54893967 -13.31698181 34.30227081 -13.32420349 35.07843018 C-13.34178913 37.56534335 -13.33015834 40.05111568 -13.31663513 42.53804016 C-13.31933019 44.26912657 -13.32321272 46.0002115 -13.32823181 47.73129272 C-13.33412784 51.35867226 -13.3255618 54.98565764 -13.30686951 58.61299133 C-13.28409668 63.2581396 -13.29719139 67.90236256 -13.32115936 72.54747677 C-13.3356292 76.12234438 -13.33100567 79.69699348 -13.32064819 83.27186775 C-13.31798329 84.98425468 -13.32124237 86.69666157 -13.33056641 88.40902519 C-13.34074998 90.80534593 -13.32520676 93.20017952 -13.30296326 95.59638977 C-13.31106018 96.30148682 -13.3191571 97.00658386 -13.32749939 97.73304749 C-13.27263654 100.93064543 -12.86193053 103.11894764 -11.33724213 105.9424057 C-7.57025694 109.36460639 -4.37857635 108.95401207 0.55226135 108.8888855 C1.50840804 108.89597989 2.46455473 108.90307427 3.44967556 108.91038364 C6.66209223 108.92802311 9.87330851 108.90982802 13.08570862 108.89179993 C15.38520358 108.89693645 17.68469461 108.9042157 19.98417664 108.91348267 C26.2362226 108.93203865 32.48784356 108.91903128 38.73987198 108.89939237 C45.27499662 108.88303936 51.81009364 108.89181409 58.3452301 108.89691162 C69.32096394 108.90235512 80.29653713 108.88564342 91.27223206 108.85762024 C102.56722588 108.82878217 113.86197714 108.82169892 125.15699768 108.83711243 C138.76481335 108.85565659 152.37245359 108.85394138 165.98027039 108.83489799 C171.17958063 108.8280157 176.37880073 108.82907206 181.57810974 108.83644295 C187.69801656 108.84408989 193.81757289 108.83203132 199.93741989 108.80459404 C202.18686253 108.79769246 204.4363378 108.7976311 206.68577957 108.80480957 C209.74990367 108.81346292 212.81293586 108.79761749 215.87696838 108.77536011 C216.77307044 108.78360087 217.6691725 108.79184164 218.59242916 108.80033213 C223.52818285 108.76250493 223.52818285 108.76250493 227.73571777 106.35352993 C230.39968085 102.58367249 230.38000579 99.62368816 230.40748596 95.13642883 C230.41566345 94.40289688 230.42384094 93.66936493 230.43226624 92.91360474 C230.45712009 90.48113321 230.47363617 88.04872003 230.48805237 85.61616516 C230.49603788 84.3705654 230.49603788 84.3705654 230.50418472 83.09980202 C230.53091634 78.70446826 230.55029112 74.30916291 230.56471252 69.91377258 C230.58136021 65.37392741 230.62613828 60.83480822 230.67708397 56.29523754 C230.71074087 52.80449592 230.72228818 49.31392695 230.72793961 45.8230381 C230.7346565 44.14967107 230.7498901 42.47631556 230.77383041 40.80310631 C230.80545354 38.45918511 230.80552413 36.11722612 230.79811096 33.77314758 C230.8145163 33.08360992 230.83092163 32.39407227 230.8478241 31.68363953 C230.80295057 28.21254191 230.32057684 26.40644002 228.26773357 23.58289146 C224.04761051 20.37307559 220.92530008 20.56401794 215.75671387 20.63250732 C214.3212122 20.62186574 214.3212122 20.62186574 212.85671049 20.61100918 C209.64739802 20.59339581 206.43929125 20.61155156 203.22999573 20.6295929 C200.93035327 20.62445542 198.63071474 20.61717544 196.33108521 20.60791016 C190.08323029 20.58936746 183.83580112 20.6023528 177.58796382 20.62200046 C171.05551437 20.6383624 164.5230924 20.62957757 157.9906311 20.6244812 C147.02087356 20.61903938 136.05127683 20.63574188 125.08155823 20.66377258 C113.79340029 20.69261662 102.5054851 20.69969038 91.21730042 20.6842804 C77.61481576 20.66573649 64.0125066 20.66745051 50.41002083 20.68649483 C45.21350166 20.69337663 40.01707267 20.69232129 34.82055473 20.68494987 C28.70473844 20.67730319 22.58927289 20.68936065 16.47351646 20.71679878 C14.22568554 20.72370033 11.97782197 20.72376176 9.72999191 20.71658325 C6.66811056 20.70792993 3.60732194 20.7237752 0.54553223 20.74603271 C-0.34988771 20.73779195 -1.24530765 20.72955118 -2.16786152 20.72106069 C-7.08222747 20.77849235 -7.08222747 20.77849235 -11.33682156 23.07982826 Z " fill="#35CCCC" transform="translate(223.78538513183594,73.73930358886719)"/>
<path d="M0 0 C17.49 0 34.98 0 53 0 C53.78983308 18.20502227 54.57360668 36.41027335 55.34690857 54.61600399 C55.70631876 63.07319088 56.06823962 71.53025504 56.43652344 79.98706055 C56.758293 87.37592925 57.0748919 94.76500026 57.38580227 102.15433413 C57.54990781 106.05061979 57.71624593 109.94677491 57.88882446 113.84269524 C58.56997975 129.25995515 59.12508315 144.66905388 59.19660378 160.10285676 C59.20347017 161.54647245 59.21330055 162.99007757 59.22632408 164.43365085 C59.242212 166.42772061 59.24216342 168.42189795 59.24145508 170.41603088 C59.24357498 171.54612863 59.24569489 172.67622637 59.24787903 173.8405695 C58.56091561 182.59650665 54.00498222 189.37708475 47.75 195.25 C39.66437047 201.98360623 33.17995096 203.70019833 22.58984375 203.3828125 C17.69802167 202.86116009 14.13718154 201.61123884 10 199 C8.97326172 198.38125 8.97326172 198.38125 7.92578125 197.75 C0.57137005 192.8190424 -4.71392971 185.5526939 -7 177 C-7.26982673 173.75276333 -7.23749106 170.52642209 -7.19116211 167.27001953 C-7.18386802 166.30926577 -7.17657393 165.348512 -7.1690588 164.35864449 C-7.03674091 152.4560765 -6.48751625 140.56894381 -5.94140625 128.6796875 C-5.83124261 126.19990027 -5.72154724 123.7200922 -5.61228943 121.24026489 C-5.32587481 114.7639269 -5.03391593 108.28785174 -4.74047852 101.81182861 C-4.27316911 91.47509196 -3.8150467 81.13794287 -3.35578728 70.8008461 C-3.19722963 67.24768518 -3.03665346 63.69462076 -2.87562561 60.14157104 C-2.46120071 50.93107525 -2.05201714 41.72149089 -1.73873901 32.50689697 C-1.69638846 31.26124529 -1.65403791 30.01559361 -1.61040401 28.7321949 C-1.53162396 26.36492288 -1.4555314 23.99755911 -1.38276768 21.63009453 C-1.34704623 20.54553034 -1.31132479 19.46096615 -1.27452087 18.34353638 C-1.24544616 17.40592531 -1.21637144 16.46831425 -1.18641567 15.50229073 C-0.9109556 10.32707526 -0.43038662 5.16463945 0 0 Z " fill="#FDFDFD" transform="translate(306,342)"/>
<path d="M0 0 C4.54871389 0.36090095 6.64848988 1.90705661 9.75 5.1875 C20.80836457 19.04939362 29.8728224 35.11147567 35.1875 52.0625 C35.41179687 52.71992188 35.63609375 53.37734375 35.8671875 54.0546875 C39.03947984 64.52759781 37.99850664 77.24444884 33.5 87.1875 C28.49926484 96.2881026 21.71099207 101.84373144 11.92578125 105.171875 C7.80871386 106.15274372 4.08850983 106.44702744 -0.125 106.4375 C-0.87048096 106.43588867 -1.61596191 106.43427734 -2.3840332 106.43261719 C-8.51650959 106.29679858 -13.42472683 105.08259942 -18.8125 102.0625 C-19.864375 101.505625 -20.91625 100.94875 -22 100.375 C-28.9756071 94.63950083 -34.83240819 86.52881828 -36.20996094 77.44018555 C-36.38516659 74.613855 -36.41922521 71.8313646 -36.375 69 C-36.36259277 67.98776367 -36.35018555 66.97552734 -36.33740234 65.93261719 C-35.68883279 44.07547637 -23.80712174 25.01003115 -10.8125 8.0625 C-10.28140625 7.26585937 -9.7503125 6.46921875 -9.203125 5.6484375 C-6.61536512 1.99940531 -4.35337421 0.51491523 0 0 Z " fill="#35CCCC" transform="translate(444.8125,239.9375)"/>
<path d="M0 0 C10.45712703 12.30112934 16.45064482 27.49257848 16.43359375 43.5546875 C15.95782282 47.3351376 14.98953949 49.76524286 13 53 C7.5648121 57.189624 2.86075338 58.85606548 -4 58 C-8.55003151 56.63416776 -11.38098295 54.71186961 -14.5 51.125 C-18.45332979 42.71972225 -16.45742018 32.97451599 -13.5625 24.5625 C-10.56343377 16.37745106 -6.2508775 6.2508775 0 0 Z " fill="#FBFEFE" transform="translate(445,268)"/>
<path d="M0 0 C4.02124276 -0.08120685 8.04083232 -0.1406066 12.0625 -0.1875 C13.7630957 -0.22520508 13.7630957 -0.22520508 15.49804688 -0.26367188 C21.75895644 -0.31843202 26.55435746 -0.24019508 32 3 C34.46414424 6.69621636 34.80100302 9.71180199 34 14 C32.40263545 16.96562503 30.46350304 19.4698858 27.19433594 20.65405273 C24.48103556 21.08181716 21.88802571 21.1116736 19.140625 21.09765625 C18.02558594 21.09443359 16.91054688 21.09121094 15.76171875 21.08789062 C14.60285156 21.07951172 13.44398438 21.07113281 12.25 21.0625 C11.07566406 21.05798828 9.90132813 21.05347656 8.69140625 21.04882812 C5.79424905 21.03705106 2.89711807 21.01911588 0 21 C0 14.07 0 7.14 0 0 Z " fill="#060707" transform="translate(474,128)"/>
</svg>
